<svg width="1440" height="739" viewBox="0 0 1440 739" fill="none" xmlns="http://www.w3.org/2000/svg">
<path d="M1583 550.727V640.748L1517.78 705.963L1452.57 640.748H1385.95V586.136L1421.36 550.727H1583Z" stroke="#131416" stroke-width="2"/>
<path d="M1297.93 453.305L1416.56 334.677H1484.38L1365.75 453.305H1297.93Z" stroke="#131416" stroke-width="2"/>
<path d="M217.083 323.675L139.465 246.057L300.703 84.8194V1H-143L-21.972 102.624V162.237L139.465 323.675V403.293L224.885 488.713V736.37L445.936 488.713V403.093L366.518 323.675H217.083Z" stroke="#131416" stroke-width="2"/>
<path d="M545.959 190.644L491.547 136.231L626.778 1H1484.18V136.231L1429.76 190.644H1303.34L1121.49 362.884H988.262L1070.08 283.866H726.601L633.38 190.644H545.959Z" stroke="#131416" stroke-width="2"/>
<path d="M990.021 454.424L924.342 359.883H718.898V454.424L805.03 542.374V736L1084.79 454.424H990.021Z" stroke="#131416" stroke-width="2"/>
<rect x="431" y="436" width="30" height="30" fill="#131416"/>
<path d="M496.6 458C502.36 458 505.92 455.64 505.92 450.88C505.92 447.28 503.76 444.56 497.68 444.08C502 443.72 504.8 441.6 504.8 438.04C504.8 434.08 502.24 431.2 496.8 431.2H484.64V458H496.6ZM495.44 435.2C498.24 435.2 500.12 436.08 500.12 438.8C500.12 441.52 498.28 442.36 495.6 442.36H489.16V435.2H495.44ZM496.04 446.16C499.16 446.16 501.28 447.36 501.28 450.08C501.28 452.8 499.6 454 495.92 454H489.16V446.16H496.04ZM514.144 458.4C518.224 458.4 520.104 455.36 520.704 452.8V454.24C520.704 457.04 522.344 458 524.424 458H527.184V454.16H525.944C525.224 454.16 524.904 453.88 524.904 453V445.68C524.904 440.88 522.184 438.12 517.344 438.12C513.024 438.12 509.984 440.36 508.464 442.44L511.144 445.64C512.264 443.6 514.304 442.08 516.904 442.08C519.584 442.08 520.464 443.4 520.624 445.36L514.104 448.12C510.944 449.36 509.024 451.04 509.024 453.8C509.024 456.6 510.944 458.4 514.144 458.4ZM513.344 453.12C513.344 452.12 514.024 451.44 515.704 450.68L520.704 448.44V450.52C520.704 453.16 518.704 454.92 515.744 454.92C514.104 454.92 513.344 454.24 513.344 453.12ZM535.09 458V447.08C535.09 443.88 536.21 441.76 539.49 441.76C542.49 441.76 543.29 443.4 543.29 445.8V458H547.81V444.44C547.81 440.4 545.49 438.12 541.69 438.12C537.81 438.12 535.81 440.76 535.09 443.84V431.2H530.61V458H535.09ZM556.887 435.76V431.2H552.407V435.76H556.887ZM556.887 458V438.52H552.407V458H556.887ZM565.746 458.4C569.826 458.4 571.706 455.36 572.306 452.8V454.24C572.306 457.04 573.946 458 576.026 458H578.786V454.16H577.546C576.826 454.16 576.506 453.88 576.506 453V445.68C576.506 440.88 573.786 438.12 568.946 438.12C564.626 438.12 561.586 440.36 560.066 442.44L562.746 445.64C563.866 443.6 565.906 442.08 568.506 442.08C571.186 442.08 572.066 443.4 572.226 445.36L565.706 448.12C562.546 449.36 560.626 451.04 560.626 453.8C560.626 456.6 562.546 458.4 565.746 458.4ZM564.946 453.12C564.946 452.12 565.626 451.44 567.306 450.68L572.306 448.44V450.52C572.306 453.16 570.306 454.92 567.346 454.92C565.706 454.92 564.946 454.24 564.946 453.12ZM582.652 462.64C585.652 462.32 586.812 460.76 586.812 458.08V452.32H581.692V458H584.052V458.52C584.052 459.84 583.172 460.12 581.732 460.28L582.652 462.64ZM604.121 458V447.6H607.401C609.921 447.6 611.281 448.24 612.281 450.04L616.921 458H622.121L617.561 450.28C616.601 448.6 615.521 447.6 613.921 447.12C618.121 446.64 621.201 444 621.201 439.52C621.201 434 617.121 431.2 611.681 431.2H599.601V458H604.121ZM611.241 435.2C614.081 435.2 616.521 436.24 616.521 439.64C616.521 442.88 614.081 443.92 611.241 443.92H604.121V435.2H611.241ZM632.883 458.4C637.203 458.4 639.843 456.44 641.323 454.2L638.563 451.32C637.843 452.96 636.323 454.72 632.923 454.72C629.843 454.72 627.803 452.84 627.563 449.36H641.483C641.563 448.96 641.643 448.12 641.643 447.4C641.643 442 638.403 438.12 632.563 438.12C627.083 438.12 623.283 442.16 623.283 448.28C623.283 454.36 627.083 458.4 632.883 458.4ZM632.563 441.72C635.523 441.72 637.283 443.4 637.603 446.48H627.603C627.963 443.32 629.803 441.72 632.563 441.72ZM650.051 458V447.08C650.051 443.88 651.171 441.76 653.811 441.76C656.451 441.76 657.571 443.12 657.571 445.8V458H662.051V447.08C662.051 443.88 663.171 441.76 665.811 441.76C668.451 441.76 669.571 443.12 669.571 445.8V458H674.051V444.44C674.051 440.4 672.091 438.12 668.371 438.12C664.651 438.12 662.731 440.8 662.051 443.88C661.851 440.2 659.931 438.12 656.371 438.12C652.691 438.12 650.771 440.76 650.051 443.84V438.52H645.571V458H650.051ZM686.779 458.4C692.459 458.4 696.299 454.32 696.299 448.28C696.299 442.2 692.459 438.12 686.779 438.12C681.179 438.12 677.339 442.2 677.339 448.28C677.339 454.32 681.179 458.4 686.779 458.4ZM686.819 454.68C683.939 454.68 681.939 452.76 681.939 448.28C681.939 443.76 683.939 441.84 686.819 441.84C689.739 441.84 691.739 443.76 691.739 448.28C691.739 452.76 689.739 454.68 686.819 454.68ZM706.83 458.44C709.67 458.44 711.59 457.12 712.43 455.88L711.03 451.88C710.47 453 709.35 454.24 707.83 454.24C706.51 454.24 705.51 453.72 705.51 451.6V442H711.47V438.52H705.51V433.32L701.03 436.16V438.52H697.99V442H701.03V452.68C701.03 456.12 703.15 458.44 706.83 458.44ZM722.365 458.4C728.045 458.4 731.885 454.32 731.885 448.28C731.885 442.2 728.045 438.12 722.365 438.12C716.765 438.12 712.925 442.2 712.925 448.28C712.925 454.32 716.765 458.4 722.365 458.4ZM722.405 454.68C719.525 454.68 717.525 452.76 717.525 448.28C717.525 443.76 719.525 441.84 722.405 441.84C725.325 441.84 727.325 443.76 727.325 448.28C727.325 452.76 725.325 454.68 722.405 454.68Z" fill="#131416"/>
<path d="M482 477H580" stroke="#131416" stroke-width="2"/>
</svg>
