<svg width="1440" height="739" viewBox="0 0 1440 739" fill="none" xmlns="http://www.w3.org/2000/svg">
<path d="M1583 550.727V640.748L1517.78 705.963L1452.57 640.748H1385.95V586.136L1421.36 550.727H1583Z" stroke="#131416" stroke-width="2"/>
<path d="M1297.93 453.305L1416.56 334.677H1484.38L1365.75 453.305H1297.93Z" stroke="#131416" stroke-width="2"/>
<path d="M217.083 323.675L139.465 246.057L300.703 84.8194V1H-143L-21.972 102.624V162.237L139.465 323.675V403.293L224.885 488.713V736.37L445.936 488.713V403.093L366.518 323.675H217.083Z" stroke="#131416" stroke-width="2"/>
<path d="M545.959 190.644L491.547 136.231L626.778 1H1484.18V136.231L1429.76 190.644H1303.34L1121.49 362.884H988.262L1070.08 283.866H726.601L633.38 190.644H545.959Z" stroke="#131416" stroke-width="2"/>
<path d="M990.021 454.424L924.342 359.883H718.898V454.424L805.03 542.374V736L1084.79 454.424H990.021Z" stroke="#131416" stroke-width="2"/>
<rect x="431" y="436" width="30" height="30" fill="#131416"/>
<path d="M496.6 458C502.36 458 505.92 455.64 505.92 450.88C505.92 447.28 503.76 444.56 497.68 444.08C502 443.72 504.8 441.6 504.8 438.04C504.8 434.08 502.24 431.2 496.8 431.2H484.64V458H496.6ZM495.44 435.2C498.24 435.2 500.12 436.08 500.12 438.8C500.12 441.52 498.28 442.36 495.6 442.36H489.16V435.2H495.44ZM496.04 446.16C499.16 446.16 501.28 447.36 501.28 450.08C501.28 452.8 499.6 454 495.92 454H489.16V446.16H496.04ZM514.144 458.4C518.224 458.4 520.104 455.36 520.704 452.8V454.24C520.704 457.04 522.344 458 524.424 458H527.184V454.16H525.944C525.224 454.16 524.904 453.88 524.904 453V445.68C524.904 440.88 522.184 438.12 517.344 438.12C513.024 438.12 509.984 440.36 508.464 442.44L511.144 445.64C512.264 443.6 514.304 442.08 516.904 442.08C519.584 442.08 520.464 443.4 520.624 445.36L514.104 448.12C510.944 449.36 509.024 451.04 509.024 453.8C509.024 456.6 510.944 458.4 514.144 458.4ZM513.344 453.12C513.344 452.12 514.024 451.44 515.704 450.68L520.704 448.44V450.52C520.704 453.16 518.704 454.92 515.744 454.92C514.104 454.92 513.344 454.24 513.344 453.12ZM535.09 458V447.08C535.09 443.88 536.21 441.76 539.49 441.76C542.49 441.76 543.29 443.4 543.29 445.8V458H547.81V444.44C547.81 440.4 545.49 438.12 541.69 438.12C537.81 438.12 535.81 440.76 535.09 443.84V431.2H530.61V458H535.09ZM556.887 435.76V431.2H552.407V435.76H556.887ZM556.887 458V438.52H552.407V458H556.887ZM565.746 458.4C569.826 458.4 571.706 455.36 572.306 452.8V454.24C572.306 457.04 573.946 458 576.026 458H578.786V454.16H577.546C576.826 454.16 576.506 453.88 576.506 453V445.68C576.506 440.88 573.786 438.12 568.946 438.12C564.626 438.12 561.586 440.36 560.066 442.44L562.746 445.64C563.866 443.6 565.906 442.08 568.506 442.08C571.186 442.08 572.066 443.4 572.226 445.36L565.706 448.12C562.546 449.36 560.626 451.04 560.626 453.8C560.626 456.6 562.546 458.4 565.746 458.4ZM564.946 453.12C564.946 452.12 565.626 451.44 567.306 450.68L572.306 448.44V450.52C572.306 453.16 570.306 454.92 567.346 454.92C565.706 454.92 564.946 454.24 564.946 453.12ZM582.652 462.64C585.652 462.32 586.812 460.76 586.812 458.08V452.32H581.692V458H584.052V458.52C584.052 459.84 583.172 460.12 581.732 460.28L582.652 462.64Z" fill="#131416"/>
<path d="M599.16 458V459H600.16V458H599.16ZM599.16 447.6V446.6H598.16V447.6H599.16ZM607.32 450.04L606.446 450.526L606.451 450.535L606.456 450.544L607.32 450.04ZM611.96 458L611.096 458.504L611.385 459H611.96V458ZM617.16 458V459H618.912L618.021 457.491L617.16 458ZM612.6 450.28L611.732 450.776L611.735 450.782L611.739 450.789L612.6 450.28ZM608.96 447.12L608.846 446.126L608.673 448.078L608.96 447.12ZM594.64 431.2V430.2H593.64V431.2H594.64ZM594.64 458H593.64V459H594.64V458ZM599.16 443.92H598.16V444.92H599.16V443.92ZM599.16 435.2V434.2H598.16V435.2H599.16ZM600.16 458V447.6H598.16V458H600.16ZM599.16 448.6H602.44V446.6H599.16V448.6ZM602.44 448.6C603.629 448.6 604.424 448.754 605.007 449.042C605.566 449.317 606.021 449.76 606.446 450.526L608.194 449.554C607.619 448.52 606.894 447.743 605.893 447.248C604.916 446.766 603.771 446.6 602.44 446.6V448.6ZM606.456 450.544L611.096 458.504L612.824 457.496L608.184 449.536L606.456 450.544ZM611.96 459H617.16V457H611.96V459ZM618.021 457.491L613.461 449.771L611.739 450.789L616.299 458.509L618.021 457.491ZM613.468 449.784C612.42 447.949 611.158 446.736 609.247 446.162L608.673 448.078C609.962 448.464 610.86 449.251 611.732 450.776L613.468 449.784ZM609.074 448.114C611.346 447.854 613.391 447.001 614.878 445.531C616.378 444.049 617.24 442.006 617.24 439.52H615.24C615.24 441.514 614.562 443.031 613.472 444.109C612.369 445.199 610.774 445.906 608.846 446.126L609.074 448.114ZM617.24 439.52C617.24 436.49 616.107 434.114 614.153 432.516C612.226 430.94 609.599 430.2 606.72 430.2V432.2C609.281 432.2 611.414 432.86 612.887 434.064C614.333 435.246 615.24 437.03 615.24 439.52H617.24ZM606.72 430.2H594.64V432.2H606.72V430.2ZM593.64 431.2V458H595.64V431.2H593.64ZM594.64 459H599.16V457H594.64V459ZM606.28 436.2C607.607 436.2 608.684 436.448 609.406 436.96C610.067 437.43 610.56 438.212 610.56 439.64H612.56C612.56 437.668 611.833 436.23 610.564 435.33C609.356 434.472 607.793 434.2 606.28 434.2V436.2ZM610.56 439.64C610.56 440.97 610.081 441.714 609.418 442.172C608.691 442.672 607.606 442.92 606.28 442.92V444.92C607.794 444.92 609.349 444.648 610.552 443.818C611.819 442.946 612.56 441.55 612.56 439.64H610.56ZM606.28 442.92H599.16V444.92H606.28V442.92ZM600.16 443.92V435.2H598.16V443.92H600.16ZM599.16 436.2H606.28V434.2H599.16V436.2ZM636.362 454.2L637.196 454.751L637.637 454.085L637.084 453.508L636.362 454.2ZM633.602 451.32L634.324 450.628L633.288 449.547L632.686 450.918L633.602 451.32ZM622.602 449.36V448.36H621.531L621.604 449.429L622.602 449.36ZM636.522 449.36V450.36H637.342L637.502 449.556L636.522 449.36ZM632.642 446.48V447.48H633.751L633.637 446.377L632.642 446.48ZM622.642 446.48L621.648 446.367L621.521 447.48H622.642V446.48ZM627.922 459.4C632.599 459.4 635.543 457.254 637.196 454.751L635.528 453.649C634.221 455.626 631.885 457.4 627.922 457.4V459.4ZM637.084 453.508L634.324 450.628L632.88 452.012L635.64 454.892L637.084 453.508ZM632.686 450.918C632.377 451.623 631.914 452.31 631.202 452.824C630.499 453.331 629.48 453.72 627.962 453.72V455.72C629.844 455.72 631.285 455.229 632.372 454.446C633.449 453.67 634.107 452.657 634.518 451.722L632.686 450.918ZM627.962 453.72C626.63 453.72 625.62 453.318 624.916 452.63C624.208 451.937 623.707 450.852 623.6 449.291L621.604 449.429C621.737 451.348 622.376 452.943 623.518 454.06C624.664 455.182 626.214 455.72 627.962 455.72V453.72ZM622.602 450.36H636.522V448.36H622.602V450.36ZM637.502 449.556C637.599 449.075 637.682 448.167 637.682 447.4H635.682C635.682 448.073 635.605 448.845 635.541 449.164L637.502 449.556ZM637.682 447.4C637.682 444.503 636.811 441.92 635.062 440.052C633.304 438.174 630.753 437.12 627.602 437.12V439.12C630.29 439.12 632.28 440.006 633.602 441.418C634.933 442.84 635.682 444.897 635.682 447.4H637.682ZM627.602 437.12C624.604 437.12 622.01 438.231 620.171 440.227C618.339 442.217 617.322 445.013 617.322 448.28H619.322C619.322 445.427 620.205 443.143 621.642 441.583C623.074 440.029 625.119 439.12 627.602 439.12V437.12ZM617.322 448.28C617.322 451.529 618.34 454.32 620.221 456.307C622.106 458.3 624.78 459.4 627.922 459.4V457.4C625.263 457.4 623.138 456.48 621.673 454.933C620.204 453.38 619.322 451.111 619.322 448.28H617.322ZM627.602 442.72C628.889 442.72 629.801 443.081 630.424 443.671C631.054 444.267 631.504 445.208 631.647 446.583L633.637 446.377C633.459 444.672 632.87 443.233 631.8 442.219C630.723 441.199 629.275 440.72 627.602 440.72V442.72ZM632.642 445.48H622.642V447.48H632.642V445.48ZM623.635 446.593C623.796 445.182 624.272 444.237 624.905 443.645C625.532 443.059 626.419 442.72 627.602 442.72V440.72C626.024 440.72 624.611 441.181 623.539 442.185C622.471 443.183 621.848 444.618 621.648 446.367L623.635 446.593ZM645.09 458V459H646.09V458H645.09ZM652.61 458H651.61V459H652.61V458ZM657.09 458V459H658.09V458H657.09ZM664.61 458H663.61V459H664.61V458ZM669.09 458V459H670.09V458H669.09ZM657.09 443.88L656.091 443.934L658.066 444.096L657.09 443.88ZM645.09 443.84H644.09L646.064 444.068L645.09 443.84ZM645.09 438.52H646.09V437.52H645.09V438.52ZM640.61 438.52V437.52H639.61V438.52H640.61ZM640.61 458H639.61V459H640.61V458ZM646.09 458V447.08H644.09V458H646.09ZM646.09 447.08C646.09 445.569 646.359 444.465 646.816 443.768C647.23 443.138 647.846 442.76 648.85 442.76V440.76C647.214 440.76 645.95 441.442 645.144 442.672C644.381 443.835 644.09 445.391 644.09 447.08H646.09ZM648.85 442.76C650.008 442.76 650.626 443.056 650.978 443.445C651.349 443.856 651.61 444.573 651.61 445.8H653.61C653.61 444.347 653.311 443.044 652.462 442.105C651.594 441.144 650.332 440.76 648.85 440.76V442.76ZM651.61 445.8V458H653.61V445.8H651.61ZM652.61 459H657.09V457H652.61V459ZM658.09 458V447.08H656.09V458H658.09ZM658.09 447.08C658.09 445.569 658.359 444.465 658.816 443.768C659.23 443.138 659.846 442.76 660.85 442.76V440.76C659.214 440.76 657.95 441.442 657.144 442.672C656.381 443.835 656.09 445.391 656.09 447.08H658.09ZM660.85 442.76C662.008 442.76 662.626 443.056 662.978 443.445C663.349 443.856 663.61 444.573 663.61 445.8H665.61C665.61 444.347 665.311 443.044 664.462 442.105C663.594 441.144 662.332 440.76 660.85 440.76V442.76ZM663.61 445.8V458H665.61V445.8H663.61ZM664.61 459H669.09V457H664.61V459ZM670.09 458V444.44H668.09V458H670.09ZM670.09 444.44C670.09 442.273 669.565 440.421 668.393 439.101C667.203 437.762 665.48 437.12 663.41 437.12V439.12C665.06 439.12 666.177 439.618 666.897 440.429C667.635 441.259 668.09 442.567 668.09 444.44H670.09ZM663.41 437.12C661.283 437.12 659.614 437.897 658.394 439.146C657.197 440.373 656.48 442.003 656.114 443.664L658.066 444.096C658.38 442.677 658.963 441.427 659.826 440.544C660.666 439.683 661.817 439.12 663.41 439.12V437.12ZM658.089 443.826C657.98 441.833 657.398 440.131 656.228 438.924C655.045 437.704 653.389 437.12 651.41 437.12V439.12C652.991 439.12 654.075 439.576 654.792 440.316C655.522 441.069 656 442.247 656.091 443.934L658.089 443.826ZM651.41 437.12C649.304 437.12 647.647 437.886 646.428 439.123C645.231 440.337 644.504 441.954 644.116 443.612L646.064 444.068C646.396 442.646 646.989 441.403 647.852 440.527C648.693 439.674 649.836 439.12 651.41 439.12V437.12ZM646.09 443.84V438.52H644.09V443.84H646.09ZM645.09 437.52H640.61V439.52H645.09V437.52ZM639.61 438.52V458H641.61V438.52H639.61ZM640.61 459H645.09V457H640.61V459ZM681.818 459.4C684.908 459.4 687.56 458.284 689.436 456.29C691.307 454.301 692.338 451.513 692.338 448.28H690.338C690.338 451.087 689.448 453.359 687.979 454.92C686.516 456.476 684.408 457.4 681.818 457.4V459.4ZM692.338 448.28C692.338 445.029 691.308 442.23 689.437 440.236C687.561 438.236 684.908 437.12 681.818 437.12V439.12C684.408 439.12 686.515 440.044 687.979 441.604C689.447 443.17 690.338 445.451 690.338 448.28H692.338ZM681.818 437.12C678.764 437.12 676.131 438.239 674.266 440.238C672.407 442.232 671.378 445.029 671.378 448.28H673.378C673.378 445.451 674.268 443.168 675.729 441.602C677.185 440.041 679.272 439.12 681.818 439.12V437.12ZM671.378 448.28C671.378 451.513 672.408 454.3 674.267 456.288C676.132 458.281 678.764 459.4 681.818 459.4V457.4C679.272 457.4 677.184 456.479 675.728 454.922C674.267 453.36 673.378 451.087 673.378 448.28H671.378ZM681.858 453.68C680.653 453.68 679.742 453.289 679.108 452.523C678.451 451.727 677.978 450.389 677.978 448.28H675.978C675.978 450.651 676.505 452.513 677.567 453.797C678.654 455.111 680.182 455.68 681.858 455.68V453.68ZM677.978 448.28C677.978 446.149 678.452 444.8 679.11 444C679.743 443.231 680.654 442.84 681.858 442.84V440.84C680.182 440.84 678.652 441.409 677.566 442.73C676.504 444.02 675.978 445.891 675.978 448.28H677.978ZM681.858 442.84C683.086 442.84 684.006 443.234 684.642 444.003C685.304 444.802 685.778 446.149 685.778 448.28H687.778C687.778 445.891 687.252 444.018 686.183 442.727C685.09 441.406 683.55 440.84 681.858 440.84V442.84ZM685.778 448.28C685.778 450.39 685.305 451.726 684.644 452.521C684.007 453.286 683.086 453.68 681.858 453.68V455.68C683.549 455.68 685.088 455.114 686.182 453.799C687.251 452.514 687.778 450.65 687.778 448.28H685.778ZM707.469 455.88L708.297 456.441L708.579 456.024L708.413 455.55L707.469 455.88ZM706.069 451.88L707.013 451.55L706.232 449.318L705.174 451.433L706.069 451.88ZM700.549 442V441H699.549V442H700.549ZM706.509 442V443H707.509V442H706.509ZM706.509 438.52H707.509V437.52H706.509V438.52ZM700.549 438.52H699.549V439.52H700.549V438.52ZM700.549 433.32H701.549V431.502L700.013 432.475L700.549 433.32ZM696.069 436.16L695.533 435.315L695.069 435.61V436.16H696.069ZM696.069 438.52V439.52H697.069V438.52H696.069ZM693.029 438.52V437.52H692.029V438.52H693.029ZM693.029 442H692.029V443H693.029V442ZM696.069 442H697.069V441H696.069V442ZM701.869 459.44C705.023 459.44 707.261 457.97 708.297 456.441L706.641 455.319C705.996 456.27 704.394 457.44 701.869 457.44V459.44ZM708.413 455.55L707.013 451.55L705.125 452.21L706.525 456.21L708.413 455.55ZM705.174 451.433C704.674 452.434 703.815 453.24 702.869 453.24V455.24C704.963 455.24 706.344 453.566 706.963 452.327L705.174 451.433ZM702.869 453.24C702.313 453.24 702.045 453.126 701.903 452.991C701.768 452.862 701.549 452.524 701.549 451.6H699.549C699.549 452.796 699.829 453.778 700.524 454.439C701.212 455.094 702.105 455.24 702.869 455.24V453.24ZM701.549 451.6V442H699.549V451.6H701.549ZM700.549 443H706.509V441H700.549V443ZM707.509 442V438.52H705.509V442H707.509ZM706.509 437.52H700.549V439.52H706.509V437.52ZM701.549 438.52V433.32H699.549V438.52H701.549ZM700.013 432.475L695.533 435.315L696.604 437.005L701.084 434.165L700.013 432.475ZM695.069 436.16V438.52H697.069V436.16H695.069ZM696.069 437.52H693.029V439.52H696.069V437.52ZM692.029 438.52V442H694.029V438.52H692.029ZM693.029 443H696.069V441H693.029V443ZM695.069 442V452.68H697.069V442H695.069ZM695.069 452.68C695.069 454.606 695.665 456.316 696.875 457.55C698.087 458.787 699.814 459.44 701.869 459.44V457.44C700.244 457.44 699.07 456.933 698.303 456.15C697.532 455.364 697.069 454.194 697.069 452.68H695.069ZM717.404 459.4C720.494 459.4 723.146 458.284 725.022 456.29C726.893 454.301 727.924 451.513 727.924 448.28H725.924C725.924 451.087 725.034 453.359 723.565 454.92C722.101 456.476 719.994 457.4 717.404 457.4V459.4ZM727.924 448.28C727.924 445.029 726.894 442.23 725.023 440.236C723.147 438.236 720.494 437.12 717.404 437.12V439.12C719.994 439.12 722.101 440.044 723.564 441.604C725.033 443.17 725.924 445.451 725.924 448.28H727.924ZM717.404 437.12C714.35 437.12 711.717 438.239 709.852 440.238C707.993 442.232 706.964 445.029 706.964 448.28H708.964C708.964 445.451 709.854 443.168 711.315 441.602C712.771 440.041 714.858 439.12 717.404 439.12V437.12ZM706.964 448.28C706.964 451.513 707.994 454.3 709.853 456.288C711.718 458.281 714.35 459.4 717.404 459.4V457.4C714.858 457.4 712.77 456.479 711.314 454.922C709.853 453.36 708.964 451.087 708.964 448.28H706.964ZM717.444 453.68C716.239 453.68 715.328 453.289 714.694 452.523C714.037 451.727 713.564 450.389 713.564 448.28H711.564C711.564 450.651 712.091 452.513 713.153 453.797C714.24 455.111 715.768 455.68 717.444 455.68V453.68ZM713.564 448.28C713.564 446.149 714.038 444.8 714.696 444C715.329 443.231 716.24 442.84 717.444 442.84V440.84C715.768 440.84 714.238 441.409 713.152 442.73C712.09 444.02 711.564 445.891 711.564 448.28H713.564ZM717.444 442.84C718.672 442.84 719.592 443.234 720.228 444.003C720.89 444.802 721.364 446.149 721.364 448.28H723.364C723.364 445.891 722.838 444.018 721.769 442.727C720.676 441.406 719.136 440.84 717.444 440.84V442.84ZM721.364 448.28C721.364 450.39 720.891 451.726 720.23 452.521C719.593 453.286 718.672 453.68 717.444 453.68V455.68C719.135 455.68 720.674 455.114 721.768 453.799C722.837 452.514 723.364 450.65 723.364 448.28H721.364Z" fill="black"/>
<path d="M482 477H580" stroke="#131416" stroke-width="2"/>
</svg>
