<svg width="1440" height="739" viewBox="0 0 1440 739" fill="none" xmlns="http://www.w3.org/2000/svg">
<g clip-path="url(#clip0_3_2)">
<path d="M1583 550.727V640.748L1517.78 705.963L1452.57 640.748H1385.95V586.136L1421.36 550.727H1583Z" stroke="#131416" stroke-width="2"/>
<path d="M1297.93 453.305L1416.56 334.677H1484.38L1365.75 453.305H1297.93Z" stroke="#131416" stroke-width="2"/>
<path d="M217.083 323.675L139.465 246.057L300.703 84.8194V1H-143L-21.972 102.624V162.237L139.465 323.675V403.293L224.885 488.713V736.37L445.936 488.713V403.093L366.518 323.675H217.083Z" stroke="#131416" stroke-width="2"/>
<path d="M545.959 190.644L491.547 136.231L626.778 1H1484.18V136.231L1429.76 190.644H1303.34L1121.49 362.884H988.262L1070.08 283.866H726.601L633.38 190.644H545.959Z" stroke="#131416" stroke-width="2"/>
<path d="M990.021 454.424L924.342 359.883H718.898V454.424L805.03 542.374V736L1084.79 454.424H990.021Z" stroke="#131416" stroke-width="2"/>
<path d="M461 436H431V466H461V436Z" fill="#131416"/>
<path d="M482 477H580" stroke="#131416" stroke-width="2"/>
<path d="M485.08 463V435H495.32C497.253 435 498.94 435.307 500.38 435.92C501.833 436.533 502.96 437.467 503.76 438.72C504.56 439.973 504.96 441.56 504.96 443.48C504.96 445.533 504.52 447.167 503.64 448.38C502.773 449.58 501.627 450.533 500.2 451.24L506.52 463H500.8L495.4 452.6C495.36 452.6 495.327 452.6 495.3 452.6C495.273 452.6 495.24 452.6 495.2 452.6H490.2V463H485.08ZM490.2 448.32H493.96C496.067 448.32 497.533 447.893 498.36 447.04C499.187 446.173 499.6 445.08 499.6 443.76C499.6 442.36 499.193 441.267 498.38 440.48C497.567 439.68 496.16 439.28 494.16 439.28H490.2V448.32ZM518.257 463.4C515.844 463.4 513.83 462.92 512.217 461.96C510.617 460.987 509.417 459.707 508.617 458.12C507.817 456.52 507.417 454.773 507.417 452.88C507.417 451.053 507.79 449.367 508.537 447.82C509.297 446.273 510.404 445.033 511.857 444.1C513.31 443.153 515.084 442.68 517.177 442.68C519.097 442.68 520.697 443.073 521.977 443.86C523.257 444.647 524.217 445.7 524.857 447.02C525.497 448.327 525.817 449.773 525.817 451.36C525.817 451.8 525.79 452.247 525.737 452.7C525.684 453.14 525.604 453.6 525.497 454.08H512.577C512.764 455.32 513.15 456.327 513.737 457.1C514.337 457.86 515.064 458.42 515.917 458.78C516.784 459.14 517.71 459.32 518.697 459.32C519.857 459.32 520.937 459.173 521.937 458.88C522.937 458.573 523.857 458.173 524.697 457.68L524.937 461.88C524.177 462.28 523.23 462.633 522.097 462.94C520.964 463.247 519.684 463.4 518.257 463.4ZM512.697 450.72H520.777C520.777 450.12 520.664 449.52 520.437 448.92C520.21 448.307 519.83 447.793 519.297 447.38C518.777 446.967 518.07 446.76 517.177 446.76C515.897 446.76 514.89 447.133 514.157 447.88C513.424 448.627 512.937 449.573 512.697 450.72ZM529.203 463V443H533.443L533.763 445.92L533.043 445.04C533.803 444.44 534.709 443.9 535.763 443.42C536.829 442.927 538.069 442.68 539.483 442.68C540.549 442.68 541.489 442.84 542.303 443.16C543.129 443.467 543.836 443.913 544.423 444.5C545.009 445.073 545.483 445.76 545.843 446.56L544.643 446.28C545.283 445.133 546.216 444.247 547.443 443.62C548.683 442.993 550.083 442.68 551.643 442.68C553.483 442.68 554.983 443.06 556.143 443.82C557.303 444.58 558.156 445.653 558.703 447.04C559.249 448.413 559.523 450.027 559.523 451.88V463H554.563V452.24C554.563 450.373 554.269 448.993 553.683 448.1C553.109 447.207 552.149 446.76 550.803 446.76C550.136 446.76 549.549 446.88 549.043 447.12C548.549 447.347 548.136 447.687 547.803 448.14C547.483 448.58 547.243 449.12 547.083 449.76C546.923 450.387 546.843 451.093 546.843 451.88V463H541.883V452.24C541.883 451 541.749 449.973 541.483 449.16C541.229 448.347 540.816 447.747 540.243 447.36C539.683 446.96 538.949 446.76 538.043 446.76C536.883 446.76 535.929 447.033 535.183 447.58C534.449 448.113 533.803 448.84 533.243 449.76L534.163 447.08V463H529.203ZM573.048 463.4C570.875 463.4 569.022 462.927 567.488 461.98C565.955 461.033 564.782 459.773 563.968 458.2C563.168 456.627 562.768 454.907 562.768 453.04C562.768 451.16 563.168 449.427 563.968 447.84C564.782 446.253 565.955 444.987 567.488 444.04C569.022 443.08 570.875 442.6 573.048 442.6C575.222 442.6 577.075 443.08 578.608 444.04C580.142 444.987 581.308 446.253 582.108 447.84C582.922 449.427 583.328 451.16 583.328 453.04C583.328 454.907 582.922 456.627 582.108 458.2C581.308 459.773 580.142 461.033 578.608 461.98C577.075 462.927 575.222 463.4 573.048 463.4ZM573.048 459.32C574.715 459.32 575.995 458.74 576.888 457.58C577.795 456.407 578.248 454.893 578.248 453.04C578.248 451.16 577.795 449.633 576.888 448.46C575.995 447.273 574.715 446.68 573.048 446.68C571.395 446.68 570.115 447.273 569.208 448.46C568.302 449.633 567.848 451.16 567.848 453.04C567.848 454.893 568.302 456.407 569.208 457.58C570.115 458.74 571.395 459.32 573.048 459.32ZM593.067 463.4C591.813 463.4 590.793 463.147 590.007 462.64C589.22 462.12 588.64 461.46 588.267 460.66C587.893 459.86 587.707 459.027 587.707 458.16V447.08H584.867L585.307 443H587.707V438.6L592.667 438.08V443H597.067V447.08H592.667V456.12C592.667 457.133 592.727 457.867 592.847 458.32C592.967 458.76 593.24 459.04 593.667 459.16C594.093 459.267 594.773 459.32 595.707 459.32H597.067L596.627 463.4H593.067ZM609.377 463.4C607.203 463.4 605.35 462.927 603.817 461.98C602.283 461.033 601.11 459.773 600.297 458.2C599.497 456.627 599.097 454.907 599.097 453.04C599.097 451.16 599.497 449.427 600.297 447.84C601.11 446.253 602.283 444.987 603.817 444.04C605.35 443.08 607.203 442.6 609.377 442.6C611.55 442.6 613.403 443.08 614.937 444.04C616.47 444.987 617.637 446.253 618.437 447.84C619.25 449.427 619.657 451.16 619.657 453.04C619.657 454.907 619.25 456.627 618.437 458.2C617.637 459.773 616.47 461.033 614.937 461.98C613.403 462.927 611.55 463.4 609.377 463.4ZM609.377 459.32C611.043 459.32 612.323 458.74 613.217 457.58C614.123 456.407 614.577 454.893 614.577 453.04C614.577 451.16 614.123 449.633 613.217 448.46C612.323 447.273 611.043 446.68 609.377 446.68C607.723 446.68 606.443 447.273 605.537 448.46C604.63 449.633 604.177 451.16 604.177 453.04C604.177 454.893 604.63 456.407 605.537 457.58C606.443 458.74 607.723 459.32 609.377 459.32Z" fill="black"/>
</g>
<defs>
<clipPath id="clip0_3_2">
<rect width="1440" height="739" fill="white"/>
</clipPath>
</defs>
</svg>
