<svg width="1440" height="739" viewBox="0 0 1440 739" fill="none" xmlns="http://www.w3.org/2000/svg">
<g clip-path="url(#clip0_3_2)">
<path d="M1583 550.727V640.748L1517.78 705.963L1452.57 640.748H1385.95V586.136L1421.36 550.727H1583Z" stroke="#131416" stroke-width="2"/>
<path d="M1297.93 453.305L1416.56 334.677H1484.38L1365.75 453.305H1297.93Z" stroke="#131416" stroke-width="2"/>
<path d="M217.083 323.675L139.465 246.057L300.703 84.8194V1H-143L-21.972 102.624V162.237L139.465 323.675V403.293L224.885 488.713V736.37L445.936 488.713V403.093L366.518 323.675H217.083Z" stroke="#131416" stroke-width="2"/>
<path d="M545.959 190.644L491.547 136.231L626.778 1H1484.18V136.231L1429.76 190.644H1303.34L1121.49 362.884H988.262L1070.08 283.866H726.601L633.38 190.644H545.959Z" stroke="#131416" stroke-width="2"/>
<path d="M990.021 454.424L924.342 359.883H718.898V454.424L805.03 542.374V736L1084.79 454.424H990.021Z" stroke="#131416" stroke-width="2"/>
<path d="M461 436H431V466H461V436Z" fill="#131416"/>
<path d="M467 477H565" stroke="#131416" stroke-width="2"/>
<path d="M470.08 463V435H480.64C483.347 435 485.353 435.58 486.66 436.74C487.98 437.887 488.64 439.56 488.64 441.76C488.64 443.4 488.267 444.773 487.52 445.88C486.787 446.973 485.68 447.773 484.2 448.28V447.32C486.44 447.8 488.113 448.68 489.22 449.96C490.327 451.24 490.88 452.933 490.88 455.04C490.88 457.56 490.067 459.52 488.44 460.92C486.813 462.307 484.587 463 481.76 463H470.08ZM475.2 458.44H481C482.4 458.44 483.513 458.153 484.34 457.58C485.18 457.007 485.6 455.973 485.6 454.48C485.6 452.96 485.16 451.927 484.28 451.38C483.4 450.833 482.307 450.56 481 450.56H475.2V458.44ZM475.2 446H479.88C481.12 446 482.047 445.747 482.66 445.24C483.287 444.733 483.6 443.92 483.6 442.8C483.6 441.64 483.287 440.813 482.66 440.32C482.047 439.813 481.12 439.56 479.88 439.56H475.2V446ZM494.125 463V443H498.765L498.885 445.12C499.391 444.56 500.105 444 501.025 443.44C501.945 442.88 502.951 442.6 504.045 442.6C504.365 442.6 504.658 442.627 504.925 442.68L504.565 447.56C504.271 447.48 503.978 447.427 503.685 447.4C503.405 447.373 503.125 447.36 502.845 447.36C502.005 447.36 501.238 447.553 500.545 447.94C499.851 448.327 499.365 448.8 499.085 449.36V463H494.125ZM511.413 463.4C510.347 463.4 509.373 463.167 508.493 462.7C507.613 462.22 506.913 461.533 506.393 460.64C505.873 459.747 505.613 458.667 505.613 457.4C505.613 456.267 505.873 455.3 506.393 454.5C506.927 453.687 507.62 453.013 508.473 452.48C509.34 451.933 510.273 451.507 511.273 451.2C512.287 450.88 513.28 450.647 514.253 450.5C515.24 450.353 516.107 450.267 516.853 450.24C516.8 449.093 516.507 448.26 515.973 447.74C515.44 447.22 514.533 446.96 513.253 446.96C512.36 446.96 511.487 447.087 510.633 447.34C509.793 447.58 508.84 447.96 507.773 448.48L507.333 444.44C508.533 443.853 509.733 443.413 510.933 443.12C512.147 442.827 513.373 442.68 514.613 442.68C516.107 442.68 517.393 442.947 518.473 443.48C519.553 444.013 520.387 444.873 520.973 446.06C521.56 447.233 521.853 448.787 521.853 450.72V456.12C521.853 457.12 521.9 457.847 521.993 458.3C522.087 458.74 522.26 459.02 522.513 459.14C522.767 459.26 523.133 459.32 523.613 459.32H524.253L523.813 463.4H522.013C521.267 463.4 520.6 463.3 520.013 463.1C519.44 462.913 518.947 462.647 518.533 462.3C518.12 461.953 517.787 461.547 517.533 461.08C516.88 461.813 515.993 462.387 514.873 462.8C513.767 463.2 512.613 463.4 511.413 463.4ZM513.493 459.6C513.933 459.6 514.48 459.487 515.133 459.26C515.787 459.02 516.373 458.653 516.893 458.16V453.6C515.96 453.64 515.027 453.793 514.093 454.06C513.16 454.327 512.38 454.72 511.753 455.24C511.127 455.76 510.813 456.413 510.813 457.2C510.813 458.013 511.027 458.62 511.453 459.02C511.88 459.407 512.56 459.6 513.493 459.6ZM532.695 463.4C531.375 463.4 530.182 463.273 529.115 463.02C528.062 462.767 527.002 462.4 525.935 461.92L526.375 457.68C527.402 458.28 528.409 458.767 529.395 459.14C530.395 459.5 531.442 459.68 532.535 459.68C533.522 459.68 534.275 459.52 534.795 459.2C535.315 458.88 535.575 458.373 535.575 457.68C535.575 457.16 535.435 456.733 535.155 456.4C534.889 456.067 534.482 455.767 533.935 455.5C533.389 455.233 532.709 454.947 531.895 454.64C530.669 454.187 529.622 453.693 528.755 453.16C527.902 452.627 527.249 451.987 526.795 451.24C526.355 450.48 526.135 449.547 526.135 448.44C526.135 447.293 526.435 446.28 527.035 445.4C527.635 444.52 528.489 443.833 529.595 443.34C530.702 442.847 532.015 442.6 533.535 442.6C534.802 442.6 535.935 442.74 536.935 443.02C537.949 443.3 538.882 443.68 539.735 444.16L539.295 448.4C538.402 447.773 537.502 447.26 536.595 446.86C535.689 446.447 534.695 446.24 533.615 446.24C532.762 446.24 532.102 446.413 531.635 446.76C531.169 447.107 530.935 447.6 530.935 448.24C530.935 449.013 531.262 449.593 531.915 449.98C532.569 450.367 533.615 450.84 535.055 451.4C535.989 451.76 536.795 452.133 537.475 452.52C538.169 452.907 538.742 453.333 539.195 453.8C539.649 454.267 539.982 454.8 540.195 455.4C540.422 455.987 540.535 456.667 540.535 457.44C540.535 458.707 540.229 459.787 539.615 460.68C539.015 461.56 538.129 462.233 536.955 462.7C535.795 463.167 534.375 463.4 532.695 463.4ZM543.929 463V443H548.889V463H543.929ZM543.929 439.96V435H548.889V439.96H543.929ZM558.659 463.4C557.472 463.4 556.499 463.167 555.739 462.7C554.992 462.22 554.439 461.587 554.079 460.8C553.719 460 553.539 459.12 553.539 458.16V433H558.499V456.12C558.499 457.187 558.559 457.947 558.679 458.4C558.812 458.84 559.052 459.107 559.399 459.2C559.745 459.28 560.245 459.32 560.899 459.32L560.459 463.4H558.659ZM566.527 467.8H564.207L565.927 463H563.887V457.56H569.087V462.52L566.527 467.8ZM574.103 463V435H584.343C586.277 435 587.963 435.307 589.403 435.92C590.857 436.533 591.983 437.467 592.783 438.72C593.583 439.973 593.983 441.56 593.983 443.48C593.983 445.533 593.543 447.167 592.663 448.38C591.797 449.58 590.65 450.533 589.223 451.24L595.543 463H589.823L584.423 452.6C584.383 452.6 584.35 452.6 584.323 452.6C584.297 452.6 584.263 452.6 584.223 452.6H579.223V463H574.103ZM579.223 448.32H582.983C585.09 448.32 586.557 447.893 587.383 447.04C588.21 446.173 588.623 445.08 588.623 443.76C588.623 442.36 588.217 441.267 587.403 440.48C586.59 439.68 585.183 439.28 583.183 439.28H579.223V448.32ZM607.28 463.4C604.867 463.4 602.854 462.92 601.24 461.96C599.64 460.987 598.44 459.707 597.64 458.12C596.84 456.52 596.44 454.773 596.44 452.88C596.44 451.053 596.814 449.367 597.56 447.82C598.32 446.273 599.427 445.033 600.88 444.1C602.334 443.153 604.107 442.68 606.2 442.68C608.12 442.68 609.72 443.073 611 443.86C612.28 444.647 613.24 445.7 613.88 447.02C614.52 448.327 614.84 449.773 614.84 451.36C614.84 451.8 614.814 452.247 614.76 452.7C614.707 453.14 614.627 453.6 614.52 454.08H601.6C601.787 455.32 602.174 456.327 602.76 457.1C603.36 457.86 604.087 458.42 604.94 458.78C605.807 459.14 606.734 459.32 607.72 459.32C608.88 459.32 609.96 459.173 610.96 458.88C611.96 458.573 612.88 458.173 613.72 457.68L613.96 461.88C613.2 462.28 612.254 462.633 611.12 462.94C609.987 463.247 608.707 463.4 607.28 463.4ZM601.72 450.72H609.8C609.8 450.12 609.687 449.52 609.46 448.92C609.234 448.307 608.854 447.793 608.32 447.38C607.8 446.967 607.094 446.76 606.2 446.76C604.92 446.76 603.914 447.133 603.18 447.88C602.447 448.627 601.96 449.573 601.72 450.72ZM618.226 463V443H622.466L622.786 445.92L622.066 445.04C622.826 444.44 623.733 443.9 624.786 443.42C625.853 442.927 627.093 442.68 628.506 442.68C629.573 442.68 630.513 442.84 631.326 443.16C632.153 443.467 632.86 443.913 633.446 444.5C634.033 445.073 634.506 445.76 634.866 446.56L633.666 446.28C634.306 445.133 635.24 444.247 636.466 443.62C637.706 442.993 639.106 442.68 640.666 442.68C642.506 442.68 644.006 443.06 645.166 443.82C646.326 444.58 647.18 445.653 647.726 447.04C648.273 448.413 648.546 450.027 648.546 451.88V463H643.586V452.24C643.586 450.373 643.293 448.993 642.706 448.1C642.133 447.207 641.173 446.76 639.826 446.76C639.16 446.76 638.573 446.88 638.066 447.12C637.573 447.347 637.16 447.687 636.826 448.14C636.506 448.58 636.266 449.12 636.106 449.76C635.946 450.387 635.866 451.093 635.866 451.88V463H630.906V452.24C630.906 451 630.773 449.973 630.506 449.16C630.253 448.347 629.84 447.747 629.266 447.36C628.706 446.96 627.973 446.76 627.066 446.76C625.906 446.76 624.953 447.033 624.206 447.58C623.473 448.113 622.826 448.84 622.266 449.76L623.186 447.08V463H618.226ZM662.072 463.4C659.899 463.4 658.045 462.927 656.512 461.98C654.979 461.033 653.805 459.773 652.992 458.2C652.192 456.627 651.792 454.907 651.792 453.04C651.792 451.16 652.192 449.427 652.992 447.84C653.805 446.253 654.979 444.987 656.512 444.04C658.045 443.08 659.899 442.6 662.072 442.6C664.245 442.6 666.099 443.08 667.632 444.04C669.165 444.987 670.332 446.253 671.132 447.84C671.945 449.427 672.352 451.16 672.352 453.04C672.352 454.907 671.945 456.627 671.132 458.2C670.332 459.773 669.165 461.033 667.632 461.98C666.099 462.927 664.245 463.4 662.072 463.4ZM662.072 459.32C663.739 459.32 665.019 458.74 665.912 457.58C666.819 456.407 667.272 454.893 667.272 453.04C667.272 451.16 666.819 449.633 665.912 448.46C665.019 447.273 663.739 446.68 662.072 446.68C660.419 446.68 659.139 447.273 658.232 448.46C657.325 449.633 656.872 451.16 656.872 453.04C656.872 454.893 657.325 456.407 658.232 457.58C659.139 458.74 660.419 459.32 662.072 459.32ZM682.09 463.4C680.837 463.4 679.817 463.147 679.03 462.64C678.243 462.12 677.663 461.46 677.29 460.66C676.917 459.86 676.73 459.027 676.73 458.16V447.08H673.89L674.33 443H676.73V438.6L681.69 438.08V443H686.09V447.08H681.69V456.12C681.69 457.133 681.75 457.867 681.87 458.32C681.99 458.76 682.263 459.04 682.69 459.16C683.117 459.267 683.797 459.32 684.73 459.32H686.09L685.65 463.4H682.09ZM698.4 463.4C696.227 463.4 694.373 462.927 692.84 461.98C691.307 461.033 690.133 459.773 689.32 458.2C688.52 456.627 688.12 454.907 688.12 453.04C688.12 451.16 688.52 449.427 689.32 447.84C690.133 446.253 691.307 444.987 692.84 444.04C694.373 443.08 696.227 442.6 698.4 442.6C700.573 442.6 702.427 443.08 703.96 444.04C705.493 444.987 706.66 446.253 707.46 447.84C708.273 449.427 708.68 451.16 708.68 453.04C708.68 454.907 708.273 456.627 707.46 458.2C706.66 459.773 705.493 461.033 703.96 461.98C702.427 462.927 700.573 463.4 698.4 463.4ZM698.4 459.32C700.067 459.32 701.347 458.74 702.24 457.58C703.147 456.407 703.6 454.893 703.6 453.04C703.6 451.16 703.147 449.633 702.24 448.46C701.347 447.273 700.067 446.68 698.4 446.68C696.747 446.68 695.467 447.273 694.56 448.46C693.653 449.633 693.2 451.16 693.2 453.04C693.2 454.893 693.653 456.407 694.56 457.58C695.467 458.74 696.747 459.32 698.4 459.32Z" fill="black"/>
</g>
<defs>
<clipPath id="clip0_3_2">
<rect width="1440" height="739" fill="white"/>
</clipPath>
</defs>
</svg>
