<svg width="24" height="24" viewBox="0 0 24 24" fill="none" xmlns="http://www.w3.org/2000/svg">
<path fill-rule="evenodd" clip-rule="evenodd" d="M7.496 3H16.505C18.987 3 21 5.012 21 7.496V16.505C21 18.987 18.988 21 16.504 21H7.496C5.013 21 3 18.988 3 16.504V7.496C3 5.013 5.012 3 7.496 3V3Z" stroke="#292A2C" stroke-width="1.5" stroke-linecap="round" stroke-linejoin="round"/>
<path d="M16.949 6.71279C16.763 6.71379 16.612 6.86479 16.612 7.05079C16.612 7.23679 16.764 7.38779 16.95 7.38779C17.136 7.38779 17.287 7.23679 17.287 7.05079C17.288 6.86379 17.136 6.71279 16.949 6.71279" stroke="#292A2C" stroke-width="1.5" stroke-linecap="round" stroke-linejoin="round"/>
<path d="M14.5455 9.45432C15.9514 10.8602 15.9514 13.1396 14.5455 14.5455C13.1396 15.9514 10.8602 15.9514 9.45432 14.5455C8.04843 13.1396 8.04843 10.8602 9.45432 9.45432C10.8602 8.04843 13.1396 8.04843 14.5455 9.45432" stroke="#292A2C" stroke-width="1.5" stroke-linecap="round" stroke-linejoin="round"/>
</svg>
