<svg width="24" height="24" viewBox="0 0 24 24" fill="none" xmlns="http://www.w3.org/2000/svg">
<path fill-rule="evenodd" clip-rule="evenodd" d="M7.5 3H16.504C18.987 3 21 5.013 21 7.496V16.505C21 18.987 18.987 21 16.504 21H7.496C5.013 21 3 18.987 3 16.504V7.5C3 5.015 5.015 3 7.5 3V3Z" stroke="#292A2C" stroke-width="1.5" stroke-linecap="round" stroke-linejoin="round"/>
<path d="M8.12012 11.1001V16.5001" stroke="#292A2C" stroke-width="1.5" stroke-linecap="round" stroke-linejoin="round"/>
<path d="M11.719 16.5001V13.3501C11.719 12.1071 12.726 11.1001 13.969 11.1001V11.1001C15.212 11.1001 16.219 12.1071 16.219 13.3501V16.5001" stroke="#292A2C" stroke-width="1.5" stroke-linecap="round" stroke-linejoin="round"/>
<path d="M8.1179 7.83799C7.9939 7.83799 7.8929 7.93899 7.8939 8.06299C7.8939 8.18699 7.9949 8.28799 8.1189 8.28799C8.2429 8.28799 8.3439 8.18699 8.3439 8.06299C8.3439 7.93799 8.2429 7.83799 8.1179 7.83799" stroke="#292A2C" stroke-width="1.5" stroke-linecap="round" stroke-linejoin="round"/>
</svg>
