<svg width="686" height="576" viewBox="0 0 686 576" fill="none" xmlns="http://www.w3.org/2000/svg">
<path d="M16.087 251.989L-44.2873 191.615L81.1295 66.198V1H-264L-169.86 80.0468V126.417L-44.2873 251.989V313.919L22.1556 380.362V573L194.098 380.362V313.764L132.323 251.989H16.087Z" stroke="#FDFEFF" stroke-width="2"/>
<path d="M271.898 148.513L229.574 106.188L334.762 1H1001.68V106.188L959.357 148.513H861.015L719.571 282.487H615.939L679.581 221.024H412.409L339.897 148.513H271.898Z" stroke="#FDFEFF" stroke-width="2"/>
<path d="M617.307 353.691L566.22 280.154H406.418V353.691L473.415 422.102V572.712L691.022 353.691H617.307Z" stroke="#FDFEFF" stroke-width="2"/>
<rect x="182.48" y="339.36" width="23.3352" height="23.3352" fill="#FDFEFF"/>
<path d="M236.6 364C242.36 364 245.92 361.64 245.92 356.88C245.92 353.28 243.76 350.56 237.68 350.08C242 349.72 244.8 347.6 244.8 344.04C244.8 340.08 242.24 337.2 236.8 337.2H224.64V364H236.6ZM235.44 341.2C238.24 341.2 240.12 342.08 240.12 344.8C240.12 347.52 238.28 348.36 235.6 348.36H229.16V341.2H235.44ZM236.04 352.16C239.16 352.16 241.28 353.36 241.28 356.08C241.28 358.8 239.6 360 235.92 360H229.16V352.16H236.04ZM254.426 364V353.28C254.426 350.04 256.506 347.48 258.746 347.48C260.066 347.48 260.586 348.36 260.586 349.44C260.586 350.56 259.986 351.84 259.346 352.48H263.946C264.306 351.88 264.826 350.48 264.826 348.6C264.826 345.72 263.026 344.12 260.586 344.12C257.106 344.12 255.146 346.92 254.426 350.04V344.52H249.946V364H254.426ZM271.722 364.4C275.802 364.4 277.682 361.36 278.282 358.8V360.24C278.282 363.04 279.922 364 282.002 364H284.762V360.16H283.522C282.802 360.16 282.482 359.88 282.482 359V351.68C282.482 346.88 279.762 344.12 274.922 344.12C270.602 344.12 267.562 346.36 266.042 348.44L268.722 351.64C269.842 349.6 271.882 348.08 274.482 348.08C277.162 348.08 278.042 349.4 278.202 351.36L271.682 354.12C268.522 355.36 266.602 357.04 266.602 359.8C266.602 362.6 268.522 364.4 271.722 364.4ZM270.922 359.12C270.922 358.12 271.602 357.44 273.282 356.68L278.282 354.44V356.52C278.282 359.16 276.282 360.92 273.322 360.92C271.682 360.92 270.922 360.24 270.922 359.12ZM295.603 364.4C299.723 364.4 302.963 362.48 302.963 358.64C302.963 355.84 301.363 354.08 297.003 352.96L294.643 352.36C292.003 351.68 290.963 351.16 290.963 349.76C290.963 348.44 292.123 347.72 293.843 347.72C296.363 347.72 298.443 349 299.803 351.16L302.443 348.36C301.243 346.16 298.323 344.16 294.163 344.16C289.683 344.16 286.763 346.36 286.763 350C286.763 353.56 289.603 354.92 292.683 355.64L295.283 356.28C297.443 356.8 298.923 357.28 298.923 358.72C298.923 360.12 297.683 360.8 295.763 360.8C292.283 360.8 289.883 358.8 288.803 356.84L286.163 359.64C287.643 362.72 291.443 364.4 295.603 364.4ZM310.988 341.76V337.2H306.508V341.76H310.988ZM310.988 364V344.52H306.508V364H310.988ZM320.207 364V337.2H315.727V364H320.207ZM325.386 368.64C328.386 368.32 329.546 366.76 329.546 364.08V358.32H324.426V364H326.786V364.52C326.786 365.84 325.906 366.12 324.466 366.28L325.386 368.64ZM346.855 364V353.6H350.135C352.655 353.6 354.015 354.24 355.015 356.04L359.655 364H364.855L360.295 356.28C359.335 354.6 358.255 353.6 356.655 353.12C360.855 352.64 363.935 350 363.935 345.52C363.935 340 359.855 337.2 354.415 337.2H342.335V364H346.855ZM353.975 341.2C356.815 341.2 359.255 342.24 359.255 345.64C359.255 348.88 356.815 349.92 353.975 349.92H346.855V341.2H353.975ZM375.617 364.4C379.937 364.4 382.577 362.44 384.057 360.2L381.297 357.32C380.577 358.96 379.057 360.72 375.657 360.72C372.577 360.72 370.537 358.84 370.297 355.36H384.217C384.297 354.96 384.377 354.12 384.377 353.4C384.377 348 381.137 344.12 375.297 344.12C369.817 344.12 366.017 348.16 366.017 354.28C366.017 360.36 369.817 364.4 375.617 364.4ZM375.297 347.72C378.257 347.72 380.017 349.4 380.337 352.48H370.337C370.697 349.32 372.537 347.72 375.297 347.72ZM392.785 364V353.08C392.785 349.88 393.905 347.76 396.545 347.76C399.185 347.76 400.305 349.12 400.305 351.8V364H404.785V353.08C404.785 349.88 405.905 347.76 408.545 347.76C411.185 347.76 412.305 349.12 412.305 351.8V364H416.785V350.44C416.785 346.4 414.825 344.12 411.105 344.12C407.385 344.12 405.465 346.8 404.785 349.88C404.585 346.2 402.665 344.12 399.105 344.12C395.425 344.12 393.505 346.76 392.785 349.84V344.52H388.305V364H392.785ZM429.513 364.4C435.193 364.4 439.033 360.32 439.033 354.28C439.033 348.2 435.193 344.12 429.513 344.12C423.913 344.12 420.073 348.2 420.073 354.28C420.073 360.32 423.913 364.4 429.513 364.4ZM429.553 360.68C426.673 360.68 424.673 358.76 424.673 354.28C424.673 349.76 426.673 347.84 429.553 347.84C432.473 347.84 434.473 349.76 434.473 354.28C434.473 358.76 432.473 360.68 429.553 360.68ZM449.564 364.44C452.404 364.44 454.324 363.12 455.164 361.88L453.764 357.88C453.204 359 452.084 360.24 450.564 360.24C449.244 360.24 448.244 359.72 448.244 357.6V348H454.204V344.52H448.244V339.32L443.764 342.16V344.52H440.724V348H443.764V358.68C443.764 362.12 445.884 364.44 449.564 364.44ZM465.099 364.4C470.779 364.4 474.619 360.32 474.619 354.28C474.619 348.2 470.779 344.12 465.099 344.12C459.499 344.12 455.659 348.2 455.659 354.28C455.659 360.32 459.499 364.4 465.099 364.4ZM465.139 360.68C462.259 360.68 460.259 358.76 460.259 354.28C460.259 349.76 462.259 347.84 465.139 347.84C468.059 347.84 470.059 349.76 470.059 354.28C470.059 358.76 468.059 360.68 465.139 360.68Z" fill="#FDFEFF"/>
<path d="M222.152 371.251H472.381" stroke="#FDFEFF" stroke-width="2"/>
</svg>
