<svg width="100" height="100" viewBox="0 0 100 100" fill="none" xmlns="http://www.w3.org/2000/svg">
<rect width="100" height="100" rx="50" fill="#131416"/>
<path d="M38.6333 45V43.4H33.1453V34.28H31.3372V45H38.6333ZM47.1244 45V43.4H41.3484V40.328H46.1324V38.728H41.3484V35.88H47.1244V34.28H39.5404V45H47.1244ZM52.6416 45V35.88H55.9376V34.28H47.5536V35.88H50.8336V45H52.6416ZM57.4169 38.408C58.6169 38.28 59.0809 37.656 59.0809 36.584V34.28H57.0329V36.552H57.9769V36.76C57.9769 37.288 57.6249 37.4 57.0489 37.464L57.4169 38.408ZM65.2525 45.16C67.4285 45.16 69.0605 44.04 69.0605 42.104C69.0605 40.056 67.5245 39.384 65.8125 38.968L64.6125 38.68C63.4445 38.392 62.7085 38.056 62.7085 37.112C62.7085 36.296 63.4445 35.816 64.4685 35.816C65.7805 35.816 66.9325 36.392 67.5245 37.72L68.8845 36.424C68.1165 34.952 66.5485 34.136 64.5805 34.136C62.5645 34.136 60.8205 35.224 60.8205 37.24C60.8205 39.272 62.4365 39.96 63.9565 40.28L64.9645 40.504C66.3565 40.808 67.2205 41.096 67.2205 42.136C67.2205 43.112 66.3565 43.496 65.2845 43.496C63.9725 43.496 62.3565 42.888 61.7805 41.32L60.5005 42.616C61.3325 44.424 63.2045 45.16 65.2525 45.16ZM37.3526 64V54.88H40.6486V53.28H32.2646V54.88H35.5446V64H37.3526ZM41.3356 64L42.3596 61.296H46.8876L47.9116 64H49.8956L45.7036 53.28H43.6236L39.4316 64H41.3356ZM44.0556 56.832L44.6316 54.896L45.2076 56.832L46.2956 59.728H42.9516L44.0556 56.832ZM57.9067 64V62.4H52.4187V53.28H50.6107V64H57.9067ZM60.6218 64V60.736L62.4138 58.848L65.7578 64H67.9178L63.7098 57.536L67.6938 53.28H65.5018L62.1098 56.864L60.5578 58.624L60.6218 56.528V53.28H58.8138V64H60.6218Z" fill="#FDFEFF"/>
</svg>
