<svg width="104" height="104" viewBox="0 0 104 104" fill="none" xmlns="http://www.w3.org/2000/svg">
<rect width="104" height="104" rx="52" fill="#FDFEFF"/>
<path d="M15.2603 56.16C17.4363 56.16 19.0683 55.04 19.0683 53.104C19.0683 51.056 17.5323 50.384 15.8203 49.968L14.6203 49.68C13.4523 49.392 12.7163 49.056 12.7163 48.112C12.7163 47.296 13.4523 46.816 14.4763 46.816C15.7883 46.816 16.9403 47.392 17.5323 48.72L18.8923 47.424C18.1243 45.952 16.5563 45.136 14.5883 45.136C12.5723 45.136 10.8283 46.224 10.8283 48.24C10.8283 50.272 12.4443 50.96 13.9643 51.28L14.9723 51.504C16.3643 51.808 17.2283 52.096 17.2283 53.136C17.2283 54.112 16.3643 54.496 15.2923 54.496C13.9803 54.496 12.3643 53.888 11.7883 52.32L10.5083 53.616C11.3403 55.424 13.2123 56.16 15.2603 56.16ZM21.3043 56L22.3283 53.296H26.8563L27.8803 56H29.8643L25.6723 45.28H23.5923L19.4003 56H21.3043ZM24.0243 48.832L24.6003 46.896L25.1763 48.832L26.2643 51.728H22.9203L24.0243 48.832ZM32.3874 56V45.28H30.5794V56H32.3874ZM39.5666 56C41.8706 56 43.2946 55.056 43.2946 53.152C43.2946 51.712 42.4306 50.624 39.9986 50.432C41.7266 50.288 42.8466 49.44 42.8466 48.016C42.8466 46.432 41.8226 45.28 39.6466 45.28H34.7826V56H39.5666ZM39.1026 46.88C40.2226 46.88 40.9746 47.232 40.9746 48.32C40.9746 49.408 40.2386 49.744 39.1666 49.744H36.5906V46.88H39.1026ZM39.3426 51.264C40.5906 51.264 41.4386 51.744 41.4386 52.832C41.4386 53.92 40.7666 54.4 39.2946 54.4H36.5906V51.264H39.3426ZM45.5387 56L46.5627 53.296H51.0907L52.1147 56H54.0987L49.9067 45.28H47.8267L43.6347 56H45.5387ZM48.2587 48.832L48.8347 46.896L49.4107 48.832L50.4987 51.728H47.1547L48.2587 48.832ZM60.3718 56V50.96L60.1158 47.424L61.3798 50.496L63.2358 54.192H65.0598L66.9158 50.496L68.1478 47.424L67.9238 50.96V56H69.7318V45.28H67.5238L65.2198 49.984L64.1478 52.72L63.0918 49.984L60.7878 45.28H58.5638V56H60.3718ZM72.3512 56L73.3752 53.296H77.9032L78.9272 56H80.9112L76.7192 45.28H74.6392L70.4472 56H72.3512ZM75.0712 48.832L75.6472 46.896L76.2232 48.832L77.3112 51.728H73.9672L75.0712 48.832ZM83.4343 56V45.28H81.6263V56H83.4343ZM89.7134 56.16C91.8894 56.16 93.5214 55.04 93.5214 53.104C93.5214 51.056 91.9854 50.384 90.2734 49.968L89.0734 49.68C87.9054 49.392 87.1694 49.056 87.1694 48.112C87.1694 47.296 87.9054 46.816 88.9294 46.816C90.2414 46.816 91.3934 47.392 91.9854 48.72L93.3454 47.424C92.5774 45.952 91.0094 45.136 89.0414 45.136C87.0254 45.136 85.2814 46.224 85.2814 48.24C85.2814 50.272 86.8974 50.96 88.4174 51.28L89.4254 51.504C90.8174 51.808 91.6814 52.096 91.6814 53.136C91.6814 54.112 90.8174 54.496 89.7454 54.496C88.4334 54.496 86.8174 53.888 86.2414 52.32L84.9614 53.616C85.7934 55.424 87.6654 56.16 89.7134 56.16Z" fill="#131416"/>
</svg>
