<svg width="100" height="100" viewBox="0 0 100 100" fill="none" xmlns="http://www.w3.org/2000/svg">
<circle cx="50" cy="50" r="50" fill="#FDFEFF"/>
<path d="M32.44 55.16C34.616 55.16 36.248 54.04 36.248 52.104C36.248 50.056 34.712 49.384 33 48.968L31.8 48.68C30.632 48.392 29.896 48.056 29.896 47.112C29.896 46.296 30.632 45.816 31.656 45.816C32.968 45.816 34.12 46.392 34.712 47.72L36.072 46.424C35.304 44.952 33.736 44.136 31.768 44.136C29.752 44.136 28.008 45.224 28.008 47.24C28.008 49.272 29.624 49.96 31.144 50.28L32.152 50.504C33.544 50.808 34.408 51.096 34.408 52.136C34.408 53.112 33.544 53.496 32.472 53.496C31.16 53.496 29.544 52.888 28.968 51.32L27.688 52.616C28.52 54.424 30.392 55.16 32.44 55.16ZM42.9446 55.144C46.0806 55.144 48.2246 52.728 48.2246 49.624C48.2246 46.536 46.0806 44.12 42.9446 44.12C39.7926 44.12 37.6646 46.536 37.6646 49.624C37.6646 52.728 39.7926 55.144 42.9446 55.144ZM42.9606 53.416C40.7206 53.416 39.5686 51.848 39.5686 49.624C39.5686 47.416 40.7206 45.832 42.9606 45.832C45.2006 45.832 46.3366 47.416 46.3366 49.624C46.3366 51.848 45.2006 53.416 42.9606 53.416ZM55.1865 55.144C58.3225 55.144 60.4665 52.728 60.4665 49.624C60.4665 46.536 58.3225 44.12 55.1865 44.12C52.0345 44.12 49.9065 46.536 49.9065 49.624C49.9065 52.728 52.0345 55.144 55.1865 55.144ZM55.2025 53.416C52.9625 53.416 51.8105 51.848 51.8105 49.624C51.8105 47.416 52.9625 45.832 55.2025 45.832C57.4425 45.832 58.5785 47.416 58.5785 49.624C58.5785 51.848 57.4425 53.416 55.2025 53.416ZM64.2927 55V49.096L64.1647 47.144L65.1407 48.664L69.5887 55H71.2527V44.28H69.4447V50.168L69.5567 52.2L68.5007 50.52L64.1647 44.28H62.4847V55H64.2927Z" fill="#131416"/>
</svg>
