<svg width="100" height="100" viewBox="0 0 100 100" fill="none" xmlns="http://www.w3.org/2000/svg">
<circle cx="50" cy="50" r="50" fill="#FDFEFF"/>
<path d="M34.3615 46L38.2815 35.28H36.3135L34.1855 41.536L33.3695 44.624L32.5695 41.536L30.4415 35.28H28.3775L32.2975 46H34.3615ZM41.1221 46V35.28H39.3141V46H41.1221ZM51.4213 46V44.4H45.6453V41.328H50.4293V39.728H45.6453V36.88H51.4213V35.28H43.8373V46H51.4213ZM57.1458 46L58.8577 39.648L59.4818 36.656L60.1058 39.648L61.7858 46H64.0578L66.8898 35.28H64.8418L63.4178 41.52L62.9218 44.544L62.3138 41.632L60.6658 35.28H58.3298L56.6497 41.632L56.0257 44.544L55.5457 41.52L54.1537 35.28H52.0737L54.8737 46H57.1458ZM34.876 64.128C37.244 64.128 38.876 62.896 39.628 60.816L38.06 59.664C37.724 61.264 36.732 62.416 34.892 62.416C32.684 62.416 31.644 60.832 31.644 58.624C31.644 56.4 32.684 54.832 34.892 54.832C36.732 54.832 37.724 55.968 38.06 57.584L39.628 56.432C38.876 54.336 37.244 53.12 34.876 53.12C31.58 53.12 29.724 55.536 29.724 58.624C29.724 61.712 31.58 64.128 34.876 64.128ZM42.1209 64L43.1449 61.296H47.6729L48.6969 64H50.6809L46.4889 53.28H44.4089L40.2169 64H42.1209ZM44.8409 56.832L45.4169 54.896L45.9929 56.832L47.0809 59.728H43.7369L44.8409 56.832ZM56.0375 64.16C58.2135 64.16 59.8455 63.04 59.8455 61.104C59.8455 59.056 58.3095 58.384 56.5975 57.968L55.3975 57.68C54.2295 57.392 53.4935 57.056 53.4935 56.112C53.4935 55.296 54.2295 54.816 55.2535 54.816C56.5655 54.816 57.7175 55.392 58.3095 56.72L59.6695 55.424C58.9015 53.952 57.3335 53.136 55.3655 53.136C53.3495 53.136 51.6055 54.224 51.6055 56.24C51.6055 58.272 53.2215 58.96 54.7415 59.28L55.7495 59.504C57.1415 59.808 58.0055 60.096 58.0055 61.136C58.0055 62.112 57.1415 62.496 56.0695 62.496C54.7575 62.496 53.1415 61.888 52.5655 60.32L51.2855 61.616C52.1175 63.424 53.9895 64.16 56.0375 64.16ZM69.3856 64V62.4H63.6096V59.328H68.3936V57.728H63.6096V54.88H69.3856V53.28H61.8016V64H69.3856Z" fill="#131416"/>
</svg>
