<svg width="104" height="104" viewBox="0 0 104 104" fill="none" xmlns="http://www.w3.org/2000/svg">
<rect width="104" height="104" rx="52" fill="#FDFEFF"/>
<path d="M24.64 56.5V54.9H18.864V51.828H23.648V50.228H18.864V47.38H24.64V45.78H17.056V56.5H24.64ZM27.8484 56.5V51.46L27.5924 47.924L28.8564 50.996L30.7124 54.692H32.5364L34.3924 50.996L35.6244 47.924L35.4004 51.46V56.5H37.2084V45.78H35.0004L32.6964 50.484L31.6244 53.22L30.5684 50.484L28.2644 45.78H26.0404V56.5H27.8484ZM47.4338 56.5C49.7378 56.5 51.1618 55.556 51.1618 53.652C51.1618 52.212 50.2978 51.124 47.8658 50.932C49.5938 50.788 50.7138 49.94 50.7138 48.516C50.7138 46.932 49.6898 45.78 47.5138 45.78H42.6497V56.5H47.4338ZM46.9698 47.38C48.0898 47.38 48.8418 47.732 48.8418 48.82C48.8418 49.908 48.1058 50.244 47.0338 50.244H44.4578V47.38H46.9698ZM47.2098 51.764C48.4578 51.764 49.3058 52.244 49.3058 53.332C49.3058 54.42 48.6338 54.9 47.1618 54.9H44.4578V51.764H47.2098ZM54.6921 56.5V52.34H56.0041C57.0121 52.34 57.5561 52.596 57.9561 53.316L59.8121 56.5H61.8921L60.0681 53.412C59.6841 52.74 59.2521 52.34 58.6121 52.148C60.2921 51.956 61.5241 50.9 61.5241 49.108C61.5241 46.9 59.8921 45.78 57.7161 45.78H52.8841V56.5H54.6921ZM57.5401 47.38C58.6761 47.38 59.6521 47.796 59.6521 49.156C59.6521 50.452 58.6761 50.868 57.5401 50.868H54.6921V47.38H57.5401ZM70.5619 56.5V54.9H64.7859V51.828H69.5699V50.228H64.7859V47.38H70.5619V45.78H62.9779V56.5H70.5619ZM76.7984 56.5L80.7184 45.78H78.7504L76.6224 52.036L75.8064 55.124L75.0064 52.036L72.8784 45.78H70.8144L74.7344 56.5H76.7984ZM89.015 56.5V54.9H83.239V51.828H88.023V50.228H83.239V47.38H89.015V45.78H81.431V56.5H89.015Z" fill="#131416"/>
</svg>
