<svg width="100" height="100" viewBox="0 0 100 100" fill="none" xmlns="http://www.w3.org/2000/svg">
<rect width="100" height="100" rx="50" fill="#131416"/>
<path d="M29.0487 47L32.6187 36.95H30.1887L28.4637 42.365L27.7137 45.575L26.9787 42.365L25.2537 36.95H22.7337L26.3037 47H29.0487ZM34.0371 47L34.8471 44.765H38.8971L39.6921 47H42.0471L38.2821 36.95H35.5221L31.7571 47H34.0371ZM36.2721 40.79L36.8721 38.66L37.4721 40.79L38.2371 42.95H35.4921L36.2721 40.79ZM44.6713 47V43.235L44.3563 39.185L45.5713 42.53L46.8163 45.26H49.0663L50.3113 42.53L51.5113 39.185L51.2113 43.235V47H53.3563V36.95H50.5213L48.8863 40.685L47.9413 43.67L46.9963 40.685L45.3613 36.95H42.5263V47H44.6713ZM59.7035 47.135C62.7035 47.135 64.7585 44.87 64.7585 41.96C64.7585 39.065 62.7035 36.8 59.7035 36.8C56.7035 36.8 54.6485 39.065 54.6485 41.96C54.6485 44.87 56.7035 47.135 59.7035 47.135ZM59.7035 45.05C57.8585 45.05 56.9135 43.76 56.9135 41.96C56.9135 40.175 57.8585 38.87 59.7035 38.87C61.5635 38.87 62.4935 40.175 62.4935 41.96C62.4935 43.76 61.5635 45.05 59.7035 45.05ZM70.1966 47.15C72.3716 47.15 73.9916 46.115 73.9916 44.195C73.9916 42.395 72.7166 41.63 70.8416 41.195L69.7016 40.925C68.6516 40.685 68.0066 40.415 68.0066 39.68C68.0066 39.095 68.5616 38.765 69.3266 38.765C70.4816 38.765 71.6516 39.335 72.3116 40.385L73.7666 38.75C72.9266 37.55 71.4116 36.83 69.5216 36.83C67.4816 36.83 65.7866 37.865 65.7866 39.83C65.7866 41.735 67.2566 42.425 68.8166 42.74L69.7916 42.95C71.1266 43.22 71.7866 43.475 71.7866 44.255C71.7866 44.945 71.1566 45.215 70.2866 45.215C69.0866 45.215 67.6316 44.66 66.9566 43.4L65.5466 45.05C66.4766 46.52 68.2616 47.15 70.1966 47.15ZM30.3305 62V58.25H34.6055V56.345H30.3305V53.855H35.4605V51.95H28.1855V62H30.3305ZM37.084 62L37.894 59.765H41.944L42.739 62H45.094L41.329 51.95H38.569L34.804 62H37.084ZM39.319 55.79L39.919 53.66L40.519 55.79L41.284 57.95H38.539L39.319 55.79ZM52.7432 62V60.095H47.7182V51.95H45.5732V62H52.7432ZM55.1162 62L55.9262 59.765H59.9762L60.7712 62H63.1262L59.3612 51.95H56.6012L52.8362 62H55.1162ZM57.3512 55.79L57.9512 53.66L58.5512 55.79L59.3162 57.95H56.5712L57.3512 55.79ZM65.7504 62V58.235H66.5304C67.4154 58.235 67.8654 58.475 68.2554 59.15L69.9504 62H72.4254L70.8354 59.39C70.4004 58.685 69.9804 58.19 69.1854 57.98C70.8204 57.785 72.0354 56.87 72.0354 55.085C72.0354 52.955 70.4454 51.95 68.2704 51.95H63.6054V62H65.7504ZM68.1954 53.855C69.1254 53.855 69.7854 54.215 69.7854 55.19C69.7854 56.135 69.1254 56.51 68.1954 56.51H65.7504V53.855H68.1954Z" fill="#FDFEFF"/>
</svg>
