<svg width="100" height="100" viewBox="0 0 100 100" fill="none" xmlns="http://www.w3.org/2000/svg">
<circle cx="50" cy="50" r="50" fill="#131416"/>
<path d="M37.064 55L40.984 44.28H39.016L36.888 50.536L36.072 53.624L35.272 50.536L33.144 44.28H31.08L35 55H37.064ZM43.8246 55V44.28H42.0166V55H43.8246ZM54.1238 55V53.4H48.3478V50.328H53.1318V48.728H48.3478V45.88H54.1238V44.28H46.5398V55H54.1238ZM59.8482 55L61.5602 48.648L62.1842 45.656L62.8082 48.648L64.4882 55H66.7603L69.5922 44.28H67.5442L66.1202 50.52L65.6242 53.544L65.0162 50.632L63.3682 44.28H61.0322L59.3522 50.632L58.7282 53.544L58.2482 50.52L56.8562 44.28H54.7762L57.5762 55H59.8482Z" fill="#FDFEFF"/>
</svg>
