<svg width="104" height="104" viewBox="0 0 104 104" fill="none" xmlns="http://www.w3.org/2000/svg">
<rect width="104" height="104" rx="52" fill="#FDFEFF"/>
<path d="M39.1656 56.5L43.0856 45.78H41.1176L38.9896 52.036L38.1736 55.124L37.3736 52.036L35.2456 45.78H33.1816L37.1016 56.5H39.1656ZM45.6062 56.5V45.78H43.7982V56.5H45.6062ZM55.5853 56.5V54.9H49.8093V51.828H54.5933V50.228H49.8093V47.38H55.5853V45.78H48.0013V56.5H55.5853ZM60.9898 56.5L62.7018 50.148L63.3258 47.156L63.9498 50.148L65.6298 56.5H67.9018L70.7338 45.78H68.6858L67.2618 52.02L66.7658 55.044L66.1578 52.132L64.5098 45.78H62.1738L60.4938 52.132L59.8698 55.044L59.3898 52.02L57.9978 45.78H55.9178L58.7178 56.5H60.9898Z" fill="#131416"/>
</svg>
